<svg width="236" height="183" viewBox="0 0 236 183" fill="none" xmlns="http://www.w3.org/2000/svg">
<g style="mix-blend-mode:luminosity" clip-path="url(#clip0)">
<path d="M32.1631 69.0877C31.33 70.0155 30.3883 71.5179 30.0704 72.4261C29.7525 73.3343 29.7631 74.8337 30.0942 75.7578C30.4253 76.6819 31.3548 77.9436 32.1597 78.5615C32.9646 79.1793 34.6279 79.8657 35.8558 80.0864L35.9599 80.105C37.1876 80.3258 39.2103 80.4257 40.4547 80.3272L41.5121 80.2432C42.7564 80.1444 44.7268 79.6946 45.8908 79.2437L46.8358 78.8776C47.9998 78.4267 49.82 77.5196 50.8807 76.8622L51.6448 76.3886C52.7055 75.7312 54.255 74.4342 55.0878 73.5062L55.1807 73.4028C56.014 72.4747 56.867 70.9203 57.0762 69.9482C57.2855 68.9761 57.2044 67.495 56.8956 66.6571C56.5868 65.8192 55.6047 64.6461 54.7134 64.0505C53.8222 63.455 52.0881 62.7869 50.8605 62.5662L50.7572 62.5476C49.5293 62.3269 47.5059 62.2161 46.2604 62.3018L45.52 62.3524C44.2748 62.438 42.3061 62.8837 41.1454 63.3432L40.5026 63.5975C39.3419 64.057 37.5243 64.9708 36.4636 65.6282L35.6997 66.1018C34.639 66.7591 33.0895 68.0562 32.2567 68.9839L32.1631 69.0877V69.0877Z" fill="url(#paint0_radial)"/>
<path d="M34.3528 95.881C33.1064 95.8203 31.0977 96.0262 29.8888 96.3388L28.6301 96.6644C27.4215 96.9769 25.5223 97.696 24.4103 98.2623L23.1247 98.9169C22.0126 99.4832 20.3496 100.636 19.4297 101.478L18.7105 102.136C17.7906 102.979 16.5189 104.545 15.8842 105.618L15.8595 105.659C15.225 106.732 14.783 108.49 14.8772 109.568C14.9714 110.645 15.5316 112.227 16.1219 113.084C16.7121 113.941 18.1591 114.976 19.3375 115.383L19.4692 115.429C20.6477 115.836 22.6314 116.22 23.8779 116.28L24.7752 116.324C26.0217 116.385 28.0304 116.179 29.2392 115.866L30.8124 115.459C32.021 115.147 33.9202 114.428 35.0326 113.862L36.3177 113.207C37.4301 112.641 39.0928 111.489 40.0128 110.647L40.7319 109.988C41.6518 109.146 42.8336 107.532 43.3581 106.403L43.3882 106.338C43.9126 105.208 44.3536 103.455 44.3677 102.441C44.3818 101.428 43.7694 99.9339 43.0063 99.1215C42.2431 98.3091 40.6959 97.2824 39.5677 96.8399C38.4395 96.3974 36.4969 95.9856 35.2502 95.9249L34.3528 95.881V95.881Z" fill="url(#paint1_radial)"/>
<path d="M188.084 67.2763C188.415 68.2001 189.452 69.5844 190.388 70.352C191.324 71.1197 193.068 72.0353 194.265 72.3866L195.353 72.7062C196.55 73.0574 198.55 73.3621 199.797 73.3832L201.318 73.4085C202.566 73.4296 204.576 73.1909 205.784 72.8784L207.357 72.4717C208.565 72.1592 210.459 71.4287 211.564 70.8491L212.561 70.3253C213.667 69.7453 215.252 68.5117 216.085 67.584L216.178 67.4806C217.011 66.5528 217.916 64.9097 218.19 63.8292C218.463 62.7488 218.328 61.0566 217.888 60.0686C217.448 59.0807 216.265 57.6725 215.258 56.9385L215.201 56.8965C214.194 56.1627 212.379 55.3244 211.166 55.0339L210.218 54.8065C209.005 54.5158 206.991 54.2453 205.744 54.2057L204.536 54.167C203.288 54.1271 201.279 54.3502 200.07 54.6628L198.497 55.0695C197.289 55.3821 195.402 56.1249 194.305 56.7202L193.593 57.1069C192.496 57.7022 190.916 58.9485 190.084 59.8762L189.99 59.9799C189.157 60.908 188.252 62.5511 187.979 63.6316C187.705 64.7121 187.753 66.3525 188.084 67.2763V67.2763Z" fill="url(#paint2_radial)"/>
<path d="M131.639 21.7913C132.887 21.7445 134.929 21.7017 136.177 21.6963L145.864 21.6538C147.112 21.6485 149.136 21.835 150.362 22.0687L160.887 24.0752C162.112 24.3088 164.083 24.8194 165.268 25.2095L172.501 27.594C173.685 27.9843 175.549 28.7928 176.642 29.3905L184.961 33.9387C186.054 34.5366 187.643 35.7706 188.491 36.6813L192.132 40.5884C192.98 41.499 194.279 43.0629 195.018 44.0642L199.812 50.5603C200.55 51.5613 201.234 53.3949 201.331 54.6347L201.846 61.2507C201.943 62.4905 202.101 64.5195 202.197 65.7593L202.712 72.3753C202.809 73.6149 202.462 75.555 201.941 76.6863L197.612 86.0867C197.091 87.2179 196.104 88.9948 195.418 90.0355L190.932 96.8461C190.247 97.8871 188.937 99.4312 188.021 100.278L178.234 109.325C177.319 110.171 175.718 111.429 174.679 112.119L164.588 118.817C163.548 119.507 161.776 120.512 160.65 121.05L147 127.575C145.873 128.113 143.974 128.848 142.778 129.208L128.625 133.464C127.43 133.824 125.447 134.301 124.219 134.524L109.802 137.148C108.574 137.372 106.548 137.582 105.3 137.614L90.1995 138.013C88.9516 138.045 86.9166 137.958 85.6763 137.819L74.1368 136.522C72.8968 136.383 70.9 135.993 69.6992 135.656L57.2614 132.161C56.0607 131.824 54.2022 131.026 53.1315 130.389L46.5303 126.462C45.4596 125.825 43.7934 124.661 42.8281 123.875L35.0893 117.572C34.1237 116.786 32.9792 115.189 32.5457 114.023L30.2716 107.909L28.6953 103.671L26.4211 97.5561C25.9876 96.3908 25.8283 94.4378 26.0675 93.2168L27.6526 85.1184C27.8917 83.8972 28.4093 81.9317 28.8033 80.7509L30.5798 75.4246C30.9739 74.2437 31.8692 72.434 32.5698 71.4032L37.9117 63.5435C38.6123 62.5127 39.9051 60.9459 40.7845 60.0619L46.2302 54.5874C47.1098 53.703 48.6316 52.3487 49.6121 51.5774L58.1593 44.853C59.1398 44.0818 60.8506 42.9839 61.9607 42.4134L70.7914 37.8765C71.9016 37.3062 73.7299 36.3962 74.8544 35.8544L85.2171 30.8614C86.3416 30.3196 88.2489 29.6138 89.4553 29.2928L100.275 26.415C101.481 26.0939 103.464 25.6029 104.681 25.3236L115.598 22.8173C116.815 22.538 118.831 22.2713 120.079 22.2246L131.639 21.7913V21.7913Z" fill="url(#paint3_linear)"/>
<path d="M191.902 123C192.806 122.141 194.084 120.573 194.741 119.514L198.975 112.693C199.632 111.635 200.574 109.833 201.067 108.69L205.141 99.2586C205.634 98.1152 205.971 96.1645 205.889 94.9238L205.438 88.1142C205.356 86.8734 205.221 84.8428 205.139 83.602L204.688 76.7922C204.606 75.5514 204.385 73.5303 204.198 72.301L203.188 65.6933C203.001 64.4641 202.693 62.4525 202.505 61.2233L201.496 54.6153C201.309 53.3861 201.234 53.3947 201.331 54.6345L201.846 61.2505C201.943 62.4903 202.1 64.5192 202.197 65.759L202.712 72.3751C202.809 73.6147 202.462 75.5548 201.941 76.6861L197.612 86.0864C197.091 87.2177 196.104 88.9946 195.418 90.0353L190.932 96.8459C190.247 97.8868 188.936 99.431 188.021 100.278L178.234 109.324C177.319 110.171 175.718 111.429 174.679 112.119L164.588 118.816C163.548 119.506 161.776 120.511 160.65 121.05L146.999 127.575C145.873 128.113 143.974 128.848 142.778 129.208L128.625 133.464C127.43 133.824 125.447 134.301 124.219 134.524L109.802 137.148C108.573 137.371 106.548 137.581 105.3 137.614L90.1994 138.012C88.9516 138.045 86.9165 137.958 85.6763 137.819L74.1368 136.522C72.8968 136.383 70.9 135.993 69.6992 135.656L57.2614 132.161C56.0607 131.824 54.2022 131.026 53.1315 130.389L46.5302 126.462C45.4596 125.825 43.7934 124.661 42.8281 123.875L35.0893 117.572C34.1237 116.786 32.9792 115.189 32.5457 114.023L30.2716 107.909L28.6953 103.671L26.4211 97.5562C25.9876 96.3908 25.9223 96.4123 26.2759 97.6047L30.8627 113.064C31.2164 114.256 31.7951 116.207 32.1489 117.399L36.7356 132.859C37.0895 134.051 38.1785 135.658 39.156 136.429L48.7601 144.009C49.7376 144.781 51.4107 145.938 52.4781 146.58L61.0004 151.711C62.0678 152.354 63.913 153.19 65.1007 153.57L77.038 157.386C78.2258 157.766 80.2074 158.225 81.442 158.406L92.4551 160.024C93.6894 160.206 95.7203 160.333 96.968 160.307L111.597 160.005C112.845 159.98 114.871 159.778 116.1 159.556L130.044 157.046C131.272 156.825 133.253 156.341 134.445 155.97L148.099 151.72C149.291 151.349 151.182 150.593 152.301 150.04L165.465 143.534C166.584 142.98 168.345 141.955 169.378 141.255L179.022 134.716C180.055 134.016 181.641 132.74 182.545 131.882L191.902 123Z" fill="url(#paint4_linear)"/>
<path d="M189.783 114.985C189.363 115.323 188.927 114.948 188.813 114.151L188.399 111.254C188.285 110.458 188.535 109.53 188.955 109.191L190.48 107.962C190.9 107.624 191.8 106.494 192.48 105.45L196.243 99.6768C196.924 98.6328 197.89 96.8456 198.391 95.7055L202.054 87.364C202.554 86.2237 203.057 85.9426 203.171 86.7392L203.585 89.6361C203.699 90.4329 203.382 92.0175 202.882 93.1577L199.219 101.499C198.719 102.64 197.752 104.426 197.072 105.471L193.308 111.244C192.628 112.287 191.728 113.418 191.308 113.756L189.783 114.985V114.985Z" fill="#C07E18"/>
<path d="M39.1256 127.523C38.8501 126.814 39.4284 126.86 40.4105 127.626L46.9125 132.695C47.8945 133.46 49.5739 134.609 50.6444 135.246L56.2596 138.592C57.3299 139.229 58.6046 139.835 59.0921 139.939L60.8647 140.315C61.3521 140.418 61.9855 141.118 62.2721 141.87C62.5586 142.622 63.0277 143.853 63.3145 144.605C63.6011 145.357 63.3925 145.861 62.8505 145.726L60.8803 145.234C60.3383 145.099 59.0249 144.457 57.9614 143.809L52.4783 140.463C51.4148 139.815 49.7476 138.649 48.7732 137.874L42.3995 132.8C41.4251 132.025 40.4027 130.81 40.1272 130.101C39.8518 129.392 39.4012 128.232 39.1256 127.523V127.523Z" fill="#C07E18"/>
<path d="M142.627 144.9C141.464 145.353 140.349 145.09 140.148 144.316L139.42 141.5C139.22 140.726 140.008 139.723 141.172 139.272L149.885 135.895C151.049 135.444 152.909 134.607 154.018 134.036L162.551 129.639C163.661 129.067 165.442 128.07 166.509 127.424L167.118 127.055C168.186 126.408 169.855 125.241 170.829 124.461L171.592 123.849C172.565 123.069 173.49 123.073 173.647 123.859C173.804 124.644 174.061 125.929 174.218 126.715C174.375 127.5 173.708 128.781 172.734 129.562L171.971 130.173C170.998 130.954 169.328 132.121 168.261 132.767L167.651 133.136C166.584 133.783 164.804 134.782 163.696 135.356L155.314 139.702C154.206 140.277 152.348 141.117 151.185 141.57L142.627 144.9V144.9Z" fill="#C07E18"/>
<path d="M81.3099 149.074C81.5534 149.837 82.7511 150.673 83.9712 150.932L84.8525 151.119C86.0727 151.378 88.089 151.668 89.3331 151.765L89.9388 151.812C91.1829 151.908 93.2219 151.997 94.47 152.007L103.87 152.089C105.119 152.1 107.149 151.953 108.383 151.763L117.269 150.389C118.503 150.198 119.348 149.409 119.148 148.634L118.42 145.819C118.219 145.044 117.048 144.58 115.817 144.786L106.805 146.299C105.574 146.506 103.545 146.68 102.297 146.687L92.7803 146.738C91.5323 146.745 89.496 146.641 88.2554 146.508L87.5969 146.438C86.3563 146.304 84.3486 145.958 83.1359 145.667L82.1877 145.439C80.9747 145.149 80.1814 145.535 80.4248 146.298L81.3099 149.074V149.074Z" fill="#C07E18"/>
<path d="M32.5454 114.023C32.9788 115.189 34.1236 116.786 35.0889 117.572L42.8277 123.874C43.7933 124.66 45.4592 125.825 46.5299 126.462L53.1312 130.389C54.2019 131.026 56.0603 131.823 57.2611 132.161L69.6989 135.655C70.8997 135.993 72.8965 136.383 74.1365 136.522L85.6766 137.818C86.9166 137.958 88.952 138.044 90.1998 138.012L105.3 137.613C106.548 137.581 108.574 137.371 109.802 137.147L124.219 134.524C125.447 134.3 127.43 133.823 128.626 133.463L142.779 129.207C143.974 128.847 145.874 128.113 147 127.574L160.65 121.049C161.776 120.511 163.548 119.506 164.588 118.816L174.679 112.118C175.719 111.428 177.319 110.171 178.235 109.324L188.021 100.277C188.937 99.4303 190.247 97.8862 190.933 96.8453L195.418 90.0346C196.104 88.9937 197.091 87.2168 197.612 86.0858L201.941 76.6855C202.462 75.5542 202.809 73.6144 202.713 72.3745L202.327 67.4157C202.23 66.1759 202.072 64.147 201.976 62.9072L201.331 54.6341C201.234 53.3943 201.307 53.3858 201.493 54.6152L204.229 72.7186C204.415 73.948 204.41 75.9601 204.219 77.1892L204.064 78.187C203.872 79.4164 203.298 81.3514 202.786 82.487L198.579 91.8308C198.068 92.9664 197.096 94.7517 196.42 95.7985L192.059 102.547C191.382 103.594 190.079 105.143 189.164 105.989L179.377 115.036C178.462 115.883 176.861 117.14 175.822 117.83L165.731 124.528C164.691 125.218 162.923 126.232 161.802 126.781L148.33 133.383C147.209 133.932 145.317 134.684 144.124 135.054L130.157 139.389C128.965 139.759 126.985 140.244 125.756 140.468L111.34 143.091C110.111 143.315 108.086 143.525 106.838 143.558L91.7374 143.956C90.4895 143.989 88.4563 143.884 87.2189 143.724L75.9434 142.266C74.706 142.106 72.7161 141.681 71.5217 141.323L59.3352 137.667C58.1408 137.309 56.2921 136.486 55.2275 135.84L48.5639 131.792C47.4994 131.146 45.8422 129.968 44.882 129.175L37.0839 122.739C36.1235 121.947 34.7166 120.491 33.9577 119.506L33.4121 118.797C32.6532 117.811 31.7427 116.029 31.3889 114.837L26.2758 97.6033C25.9221 96.4113 25.9875 96.3894 26.421 97.5548L32.5454 114.023V114.023Z" fill="url(#paint5_linear)"/>
<path d="M212.381 93.2013L207.722 90.7351L203.631 89.9685L201.735 89.6128L201.032 89.6869L197.48 97.7779L191.241 107.347L188.191 109.805L188.232 110.095L189.062 110.581L193.113 111.539L195.129 112.016L201.969 111.249L208.089 108.998L212.548 105.509L215.194 101.487L215.085 97.1757L212.381 93.2013V93.2013Z" fill="url(#paint6_radial)"/>
<path d="M212.381 93.2013L207.722 90.7351L203.631 89.9685L201.735 89.6128L201.032 89.6869L197.48 97.7779L191.241 107.347L188.191 109.805L188.232 110.095L189.062 110.581L193.113 111.539L195.129 112.016L201.969 111.249L208.089 108.998L212.548 105.509L215.194 101.487L215.085 97.1757L212.381 93.2013V93.2013Z" fill="url(#paint7_radial)"/>
<path d="M61.7514 140.503L59.9785 140.127L58.2058 139.751L48.6984 134.087L41.7147 128.642L41.6051 128.69L40.0211 129.827L36.5176 132.342L33.6385 136.759L32.8057 141.313L34.4858 145.218L38.517 147.847L44.19 149.05L50.3194 148.132L56.6732 145.488L58.3879 144.069L61.3652 141.604L61.8557 140.776L61.7514 140.503V140.503Z" fill="url(#paint8_radial)"/>
<path d="M61.7514 140.503L59.9785 140.127L58.2058 139.751L48.6984 134.087L41.7147 128.642L41.6051 128.69L40.0211 129.827L36.5176 132.342L33.6385 136.759L32.8057 141.313L34.4858 145.218L38.517 147.847L44.19 149.05L50.3194 148.132L56.6732 145.488L58.3879 144.069L61.3652 141.604L61.8557 140.776L61.7514 140.503V140.503Z" fill="url(#paint9_radial)"/>
<path d="M173.975 128.567L171.549 125.792L170.007 125.12L169.059 125.88L164.568 128.599L152 135.075L141.991 138.954L142.152 140.404L144.94 144L145.17 144.297L150.538 146.915L157.072 147.561L163.749 146.168L169.708 143.292L173.925 138.864L175.7 134.065L174.881 129.604L173.975 128.567V128.567Z" fill="url(#paint10_radial)"/>
<path d="M173.975 128.567L171.549 125.792L170.007 125.12L169.059 125.88L164.568 128.599L152 135.075L141.991 138.954L142.152 140.404L144.94 144L145.17 144.297L150.538 146.915L157.072 147.561L163.749 146.168L169.708 143.292L173.925 138.864L175.7 134.065L174.881 129.604L173.975 128.567V128.567Z" fill="url(#paint11_radial)"/>
<path d="M115.025 144.92L104.566 146.676L90.511 146.751L85.341 146.196L84.3865 145.968L83.2769 147.287L82.2601 150.57L81.8159 152.004L83.0297 156.697L86.5943 160.114L92.1146 162.024L98.8011 161.964L105.317 159.945L110.799 156.524L114.62 151.864L114.858 150.762L115.687 146.916L115.025 144.92V144.92Z" fill="url(#paint12_radial)"/>
<path d="M115.025 144.92L104.566 146.676L90.511 146.751L85.341 146.196L84.3865 145.968L83.2769 147.287L82.2601 150.57L81.8159 152.004L83.0297 156.697L86.5943 160.114L92.1146 162.024L98.8011 161.964L105.317 159.945L110.799 156.524L114.62 151.864L114.858 150.762L115.687 146.916L115.025 144.92V144.92Z" fill="url(#paint13_radial)"/>
<path d="M32.2341 115.597C32.2811 115.678 32.4065 115.871 32.5125 116.025C32.6184 116.179 32.6744 116.336 32.6367 116.373C32.5989 116.41 32.5281 116.429 32.4795 116.413C32.431 116.398 32.3413 116.328 32.2801 116.256C32.219 116.185 32.1228 116.069 32.0661 115.998C32.0094 115.927 31.8895 115.743 31.7995 115.588C31.7096 115.433 31.5858 115.183 31.5241 115.033C31.4625 114.884 31.3452 114.6 31.2638 114.403C31.1823 114.206 31.0691 113.914 31.0125 113.752C30.9556 113.591 30.9163 113.409 30.9249 113.347C30.9335 113.286 31.0142 113.259 31.1044 113.287C31.1947 113.315 31.2849 113.402 31.3054 113.479C31.3258 113.556 31.3872 113.698 31.4414 113.795C31.4956 113.891 31.592 114.098 31.6553 114.254C31.7186 114.41 31.8552 114.742 31.9593 114.993C32.0635 115.243 32.1871 115.515 32.2341 115.597V115.597Z" fill="url(#paint14_radial)"/>
<path d="M204.234 74.3956C204.206 74.3284 204.174 74.1909 204.162 74.09C204.15 73.989 204.126 73.7705 204.11 73.6043C204.093 73.4381 204.062 73.1674 204.04 73.0026C204.019 72.8378 203.966 72.5496 203.922 72.3623C203.879 72.175 203.817 71.8834 203.786 71.7146C203.755 71.5457 203.752 71.3317 203.78 71.2387C203.807 71.1456 203.889 71.124 203.961 71.1906C204.032 71.2571 204.112 71.3856 204.138 71.4761C204.164 71.5666 204.222 71.776 204.267 71.9417C204.312 72.1074 204.372 72.3889 204.399 72.5667C204.426 72.7444 204.461 73.0608 204.477 73.2696C204.492 73.4783 204.495 73.7776 204.482 73.9359C204.469 74.0941 204.419 74.2896 204.371 74.3706C204.323 74.4516 204.262 74.4629 204.234 74.3956V74.3956Z" fill="url(#paint15_radial)"/>
<path d="M44.6387 127.913C44.6093 127.74 44.5939 127.528 44.6046 127.442C44.6152 127.357 44.6858 127.261 44.7613 127.229C44.8366 127.197 44.9876 127.223 45.0961 127.287C45.2047 127.35 45.4009 127.525 45.5316 127.674L46.0077 128.219L46.4836 128.763C46.6144 128.913 46.8183 129.164 46.9364 129.322C47.0549 129.479 47.1824 129.741 47.22 129.903C47.2576 130.066 47.2468 130.238 47.1956 130.287C47.1444 130.335 47.0191 130.373 46.917 130.371C46.8149 130.37 46.6423 130.316 46.5335 130.253C46.4249 130.189 46.2471 130.085 46.1383 130.021C46.0297 129.957 45.8335 129.783 45.7027 129.633L45.2269 129.088C45.0961 128.939 44.9224 128.684 44.8406 128.522C44.7589 128.361 44.6681 128.087 44.6387 127.913V127.913Z" fill="url(#paint16_radial)"/>
<path d="M196.76 91.6052C196.804 91.403 196.863 91.0758 196.891 90.8786C196.92 90.6815 196.996 90.4309 197.06 90.3225C197.125 90.2141 197.248 90.1073 197.334 90.085C197.42 90.0627 197.58 90.0965 197.688 90.1601C197.797 90.2238 197.928 90.4166 197.98 90.5885C198.032 90.7604 198.091 91.0582 198.112 91.25C198.133 91.4418 198.129 91.7416 198.103 91.9163C198.078 92.091 197.987 92.4098 197.902 92.6246C197.817 92.8395 197.679 93.1143 197.596 93.2359C197.514 93.3575 197.374 93.5365 197.285 93.6338C197.197 93.7311 197.054 93.8293 196.967 93.8516C196.881 93.874 196.718 93.8526 196.605 93.8038C196.492 93.7551 196.385 93.6331 196.367 93.5317C196.349 93.4304 196.368 93.1885 196.411 92.9939C196.452 92.7994 196.53 92.4901 196.583 92.3066C196.637 92.123 196.716 91.8073 196.76 91.6052V91.6052Z" fill="url(#paint17_radial)"/>
<path d="M66.0929 137.493C66.1122 137.368 66.2024 137.186 66.2932 137.088C66.384 136.99 66.562 136.875 66.6886 136.832C66.8152 136.788 67.0421 136.738 67.1928 136.72C67.3435 136.703 67.5897 136.755 67.7405 136.836C67.8913 136.917 68.1579 137.074 68.333 137.184C68.5081 137.294 68.7853 137.513 68.9486 137.671C69.1122 137.829 69.3264 138.074 69.4247 138.216C69.5231 138.357 69.6357 138.585 69.6753 138.722C69.7147 138.859 69.6988 139.089 69.6397 139.232C69.5806 139.376 69.3908 139.529 69.2182 139.574C69.0456 139.618 68.7447 139.621 68.5496 139.58C68.3545 139.539 68.0666 139.451 67.9099 139.386C67.7532 139.32 67.4867 139.164 67.3177 139.038C67.1487 138.912 66.8853 138.691 66.7327 138.547C66.5801 138.402 66.3656 138.157 66.2563 138.002C66.147 137.847 66.0737 137.618 66.0929 137.493V137.493Z" fill="url(#paint18_radial)"/>
<path d="M179.654 110.692C179.756 110.49 179.914 110.224 180.004 110.101C180.094 109.979 180.294 109.752 180.448 109.597C180.602 109.443 180.849 109.229 180.996 109.122C181.142 109.015 181.333 108.91 181.42 108.887C181.506 108.865 181.666 108.899 181.774 108.962C181.883 109.026 182.033 109.206 182.109 109.364C182.184 109.521 182.256 109.802 182.27 109.99C182.284 110.176 182.261 110.489 182.219 110.683C182.177 110.877 182.049 111.181 181.935 111.358C181.82 111.535 181.592 111.819 181.428 111.99C181.263 112.16 181.027 112.345 180.902 112.401C180.777 112.457 180.565 112.512 180.431 112.523C180.296 112.534 180.098 112.491 179.989 112.428C179.881 112.364 179.728 112.179 179.65 112.016C179.572 111.854 179.499 111.572 179.488 111.391C179.477 111.209 179.552 110.895 179.654 110.692V110.692Z" fill="url(#paint19_radial)"/>
<path d="M94.2906 140.363C94.3918 140.192 94.6062 140 94.7667 139.937C94.9273 139.874 95.2102 139.801 95.3952 139.774C95.5802 139.748 95.8841 139.767 96.0709 139.818C96.2577 139.869 96.5768 139.936 96.78 139.968C96.9832 140 97.2717 140.141 97.421 140.28C97.5703 140.419 97.7844 140.664 97.8968 140.824C98.0092 140.985 98.1237 141.253 98.1513 141.42C98.1789 141.588 98.0921 141.835 97.9584 141.971C97.8247 142.106 97.5914 142.268 97.4389 142.331C97.2863 142.393 97.0039 142.466 96.8107 142.493C96.6175 142.52 96.2949 142.52 96.0943 142.493C95.8936 142.467 95.5744 142.399 95.3849 142.343C95.1953 142.287 94.9201 142.132 94.7725 141.999C94.625 141.865 94.4108 141.62 94.2967 141.454C94.1827 141.288 94.093 141.045 94.0978 140.914C94.1025 140.783 94.1892 140.535 94.2906 140.363Z" fill="url(#paint20_radial)"/>
<path d="M154.923 127.066C154.946 126.865 155.014 126.547 155.076 126.359C155.137 126.172 155.298 125.904 155.433 125.764C155.568 125.624 155.814 125.41 155.98 125.289C156.146 125.167 156.421 125.022 156.591 124.965C156.762 124.908 157.045 124.835 157.22 124.802C157.396 124.77 157.673 124.8 157.837 124.871C158.002 124.941 158.198 125.115 158.273 125.258C158.348 125.401 158.39 125.683 158.367 125.885C158.343 126.087 158.274 126.405 158.214 126.592C158.154 126.779 157.988 127.055 157.845 127.205C157.701 127.355 157.455 127.569 157.297 127.681C157.14 127.792 156.873 127.931 156.705 127.988C156.537 128.045 156.254 128.118 156.077 128.151C155.899 128.183 155.622 128.144 155.461 128.064C155.299 127.984 155.103 127.81 155.025 127.676C154.947 127.542 154.901 127.268 154.923 127.066Z" fill="url(#paint21_radial)"/>
<path d="M125.031 137.262C125.058 137.129 125.144 136.882 125.223 136.711C125.302 136.54 125.49 136.294 125.64 136.163C125.791 136.033 126.094 135.869 126.314 135.798C126.535 135.728 126.888 135.637 127.1 135.595C127.312 135.554 127.644 135.553 127.839 135.595C128.034 135.636 128.319 135.777 128.471 135.907C128.624 136.038 128.838 136.283 128.947 136.452C129.056 136.621 129.121 136.865 129.092 136.995C129.062 137.125 128.976 137.373 128.899 137.546C128.823 137.718 128.637 137.967 128.486 138.097C128.336 138.228 128.055 138.388 127.863 138.452C127.671 138.517 127.317 138.609 127.078 138.655C126.838 138.702 126.482 138.707 126.287 138.666C126.093 138.625 125.811 138.481 125.662 138.346C125.514 138.212 125.299 137.967 125.186 137.802C125.074 137.637 125.004 137.394 125.031 137.262V137.262Z" fill="url(#paint22_radial)"/>
</g>
<defs>
<radialGradient id="paint0_radial" cx="0" cy="0" r="1" gradientUnits="userSpaceOnUse" gradientTransform="translate(43.5172 71.2902) rotate(-14.5) scale(11.3971 12.301)">
<stop offset="0.1429" stop-color="#FFF1A9"/>
<stop offset="0.8736" stop-color="#D1B000"/>
</radialGradient>
<radialGradient id="paint1_radial" cx="0" cy="0" r="1" gradientUnits="userSpaceOnUse" gradientTransform="translate(29.6602 106.077) rotate(-14.5) scale(12.3128 13.7667)">
<stop offset="0.1429" stop-color="#FFF1A9"/>
<stop offset="0.8736" stop-color="#D1B000"/>
</radialGradient>
<radialGradient id="paint2_radial" cx="0" cy="0" r="1" gradientUnits="userSpaceOnUse" gradientTransform="translate(203.024 63.7445) rotate(-14.5) scale(12.3931 14.0042)">
<stop offset="0.1429" stop-color="#FFF1A9"/>
<stop offset="0.8736" stop-color="#D1B000"/>
</radialGradient>
<linearGradient id="paint3_linear" x1="5" y1="124.5" x2="230" y2="23" gradientUnits="userSpaceOnUse">
<stop stop-color="#FFFCDD"/>
<stop offset="1" stop-color="#B8B48E"/>
</linearGradient>
<linearGradient id="paint4_linear" x1="37.5" y1="115" x2="204.5" y2="102" gradientUnits="userSpaceOnUse">
<stop stop-color="#D0881C"/>
<stop offset="0.942708" stop-color="#6B4306"/>
<stop offset="1" stop-color="#CE9339" stop-opacity="0"/>
</linearGradient>
<linearGradient id="paint5_linear" x1="44" y1="118.5" x2="200" y2="65" gradientUnits="userSpaceOnUse">
<stop stop-color="#D9D9D9"/>
<stop offset="1" stop-color="#E6DDDD"/>
</linearGradient>
<radialGradient id="paint6_radial" cx="0" cy="0" r="1" gradientUnits="userSpaceOnUse" gradientTransform="translate(200.881 100.63) rotate(-14.5) scale(12.7655 12.715)">
<stop offset="0.1429" stop-color="white"/>
<stop offset="0.8736" stop-color="#BFBFBF"/>
</radialGradient>
<radialGradient id="paint7_radial" cx="0" cy="0" r="1" gradientUnits="userSpaceOnUse" gradientTransform="translate(200.88 100.627) rotate(-14.5) scale(11.7908 15.5049)">
<stop offset="0.1429" stop-color="#FFF1A9"/>
<stop offset="0.8736" stop-color="#D1B000"/>
</radialGradient>
<radialGradient id="paint8_radial" cx="0" cy="0" r="1" gradientUnits="userSpaceOnUse" gradientTransform="translate(46.6054 138.235) rotate(-14.5) scale(12.4703 12.421)">
<stop offset="0.1429" stop-color="white"/>
<stop offset="0.8736" stop-color="#BFBFBF"/>
</radialGradient>
<radialGradient id="paint9_radial" cx="0" cy="0" r="1" gradientUnits="userSpaceOnUse" gradientTransform="translate(46.6036 138.235) rotate(-14.5) scale(11.3985 15.442)">
<stop offset="0.1429" stop-color="#FFF1A9"/>
<stop offset="0.8736" stop-color="#D1B000"/>
</radialGradient>
<radialGradient id="paint10_radial" cx="0" cy="0" r="1" gradientUnits="userSpaceOnUse" gradientTransform="translate(159.195 137.63) rotate(-14.5) scale(13.8716 13.8167)">
<stop offset="0.1429" stop-color="white"/>
<stop offset="0.8736" stop-color="#BFBFBF"/>
</radialGradient>
<radialGradient id="paint11_radial" cx="0" cy="0" r="1" gradientUnits="userSpaceOnUse" gradientTransform="translate(159.195 137.63) rotate(-14.5) scale(13.8716 13.8167)">
<stop offset="0.1429" stop-color="#FFF1A9"/>
<stop offset="0.8736" stop-color="#D1B000"/>
</radialGradient>
<radialGradient id="paint12_radial" cx="0" cy="0" r="1" gradientUnits="userSpaceOnUse" gradientTransform="translate(99.395 151.947) rotate(-14.5) scale(13.8204 13.7657)">
<stop offset="0.1429" stop-color="white"/>
<stop offset="0.8736" stop-color="#BFBFBF"/>
</radialGradient>
<radialGradient id="paint13_radial" cx="0" cy="0" r="1" gradientUnits="userSpaceOnUse" gradientTransform="translate(99.394 151.947) rotate(-14.5) scale(13.7406 14.0261)">
<stop offset="0.1429" stop-color="#FFF1A9"/>
<stop offset="0.8736" stop-color="#D1B000"/>
</radialGradient>
<radialGradient id="paint14_radial" cx="0" cy="0" r="1" gradientUnits="userSpaceOnUse" gradientTransform="translate(31.7788 114.848) rotate(-14.5) scale(1.26115 1.25616)">
<stop offset="0.1429" stop-color="white"/>
<stop offset="0.8736" stop-color="#BFBFBF"/>
</radialGradient>
<radialGradient id="paint15_radial" cx="0" cy="0" r="1" gradientUnits="userSpaceOnUse" gradientTransform="translate(204.146 72.7775) rotate(-14.5) scale(1.19034 1.18568)">
<stop offset="0.1429" stop-color="white"/>
<stop offset="0.8736" stop-color="#BFBFBF"/>
</radialGradient>
<radialGradient id="paint16_radial" cx="0" cy="0" r="1" gradientUnits="userSpaceOnUse" gradientTransform="translate(45.8971 128.793) rotate(-14.5) scale(1.46179 1.45602)">
<stop offset="0.1429" stop-color="white"/>
<stop offset="0.8736" stop-color="#BFBFBF"/>
</radialGradient>
<radialGradient id="paint17_radial" cx="0" cy="0" r="1" gradientUnits="userSpaceOnUse" gradientTransform="translate(197.15 91.9695) rotate(-14.5) scale(1.50115 1.49522)">
<stop offset="0.1429" stop-color="white"/>
<stop offset="0.8736" stop-color="#BFBFBF"/>
</radialGradient>
<radialGradient id="paint18_radial" cx="0" cy="0" r="1" gradientUnits="userSpaceOnUse" gradientTransform="translate(67.8968 138.215) rotate(-14.5) scale(1.62437 1.61795)">
<stop offset="0.1429" stop-color="white"/>
<stop offset="0.8736" stop-color="#BFBFBF"/>
</radialGradient>
<radialGradient id="paint19_radial" cx="0" cy="0" r="1" gradientUnits="userSpaceOnUse" gradientTransform="translate(180.887 110.724) rotate(-14.5) scale(1.60023 1.5939)">
<stop offset="0.1429" stop-color="white"/>
<stop offset="0.8736" stop-color="#BFBFBF"/>
</radialGradient>
<radialGradient id="paint20_radial" cx="0" cy="0" r="1" gradientUnits="userSpaceOnUse" gradientTransform="translate(96.1085 141.132) rotate(-14.5) scale(1.72328 1.71646)">
<stop offset="0.1429" stop-color="white"/>
<stop offset="0.8736" stop-color="#BFBFBF"/>
</radialGradient>
<radialGradient id="paint21_radial" cx="0" cy="0" r="1" gradientUnits="userSpaceOnUse" gradientTransform="translate(156.65 126.477) rotate(-14.5) scale(1.70464 1.69789)">
<stop offset="0.1429" stop-color="white"/>
<stop offset="0.8736" stop-color="#BFBFBF"/>
</radialGradient>
<radialGradient id="paint22_radial" cx="0" cy="0" r="1" gradientUnits="userSpaceOnUse" gradientTransform="translate(127.064 137.133) rotate(-14.5) scale(1.78933 1.78224)">
<stop offset="0.1429" stop-color="white"/>
<stop offset="0.8736" stop-color="#BFBFBF"/>
</radialGradient>
<clipPath id="clip0">
<rect width="209.067" height="134.017" fill="white" transform="translate(0 52.3462) rotate(-14.5)"/>
</clipPath>
</defs>
</svg>
